<?xml version="1.0" standalone="no"?>
<!DOCTYPE svg PUBLIC "-//W3C//DTD SVG 20010904//EN"
 "http://www.w3.org/TR/2001/REC-SVG-20010904/DTD/svg10.dtd">
<svg version="1.0" xmlns="http://www.w3.org/2000/svg"
 width="500.000000pt" height="500.000000pt" viewBox="0 0 500.000000 500.000000"
 preserveAspectRatio="xMidYMid meet">
<metadata>
Created by potrace 1.11, written by Peter Selinger 2001-2013
</metadata>
<g transform="translate(0.000000,500.000000) scale(0.100000,-0.100000)"
fill="#000000" stroke="none">
<path d="M3054 4914 c-15 -10 -28 -12 -45 -5 -17 6 -37 4 -64 -5 -22 -7 -57
-14 -78 -14 -52 0 -70 -12 -105 -68 -26 -42 -36 -50 -70 -55 -34 -6 -47 -17
-96 -77 -68 -86 -71 -107 -16 -151 34 -27 38 -35 28 -48 -10 -12 -7 -12 8 2
11 9 26 17 33 17 7 0 36 11 65 25 29 14 68 28 87 31 19 4 36 10 39 13 7 9 125
61 139 61 6 0 11 6 11 13 1 8 4 7 13 -3 7 -8 17 -15 22 -15 6 0 25 -4 43 -9
21 -5 38 -4 44 2 6 6 24 8 39 5 43 -8 79 4 79 27 0 11 5 20 10 20 6 0 10 -4
10 -9 0 -15 52 -25 130 -23 80 2 97 -6 170 -81 28 -27 47 -86 33 -96 -5 -3 -9
-19 -10 -36 -1 -16 -4 -59 -7 -95 -4 -48 -2 -70 10 -88 17 -26 79 -56 94 -47
6 4 10 -4 11 -17 0 -13 3 -17 6 -10 12 32 33 -30 38 -114 10 -184 17 -250 27
-283 9 -29 8 -55 -6 -144 -1 -9 -17 -32 -34 -50 -32 -33 -45 -60 -17 -37 12
10 15 10 15 0 0 -6 -9 -14 -19 -17 -17 -4 -19 -13 -16 -66 3 -83 4 -84 15 -67
7 12 11 7 16 -20 6 -29 8 -31 16 -15 6 14 7 11 2 -10 -3 -16 -10 -33 -16 -36
-6 -4 -7 -12 -3 -18 14 -23 13 -60 -1 -54 -9 3 -14 -2 -14 -14 0 -19 -58 -144
-61 -130 -1 4 -2 11 -3 17 0 5 -6 14 -12 20 -9 9 -13 2 -18 -24 -7 -38 -34
-60 -61 -49 -14 5 -16 2 -10 -17 4 -13 3 -20 -2 -17 -6 4 -9 -14 -7 -46 4 -52
4 -52 -11 -22 -8 17 -14 37 -15 45 0 12 -4 11 -15 -4 -18 -24 -20 -7 -3 29 9
19 9 28 0 37 -9 9 -12 6 -12 -12 0 -16 -3 -21 -10 -14 -12 12 2 116 25 194 30
98 30 109 0 137 -20 19 -30 22 -38 14 -6 -6 -21 -11 -34 -11 -12 0 -26 -8 -31
-17 -9 -19 -9 -67 0 -93 27 -78 27 -83 13 -116 -8 -19 -26 -50 -40 -69 -29
-37 -44 -108 -26 -119 6 -4 11 0 11 11 1 16 3 15 19 -4 l19 -23 11 30 c10 31
25 38 37 18 5 -8 10 -6 15 8 7 16 8 17 8 2 1 -25 31 -57 47 -51 16 6 17 -10 6
-71 -5 -26 -13 -40 -25 -42 -9 -1 -17 4 -17 11 0 7 -11 13 -25 13 -14 0 -25
-6 -25 -13 0 -12 -28 -14 -47 -2 -6 4 -13 2 -15 -4 -3 -8 -10 -6 -21 5 -16 16
-17 16 -17 -2 0 -36 -12 -52 -36 -52 -13 0 -24 -6 -24 -12 0 -8 -3 -9 -8 -3
-4 6 -15 11 -26 13 -14 3 -17 -1 -12 -13 3 -9 2 -14 -3 -11 -5 3 -15 -1 -22
-10 -8 -10 -22 -14 -40 -10 -22 4 -29 1 -34 -15 -7 -20 -7 -20 -25 0 -9 12
-23 21 -29 21 -7 0 -9 6 -5 13 6 10 4 10 -7 0 -19 -19 -26 -16 -33 12 -4 14
-11 23 -16 20 -5 -3 -11 -1 -15 5 -10 16 -24 2 -19 -18 5 -17 -33 -42 -66 -42
-9 0 -21 -5 -27 -11 -9 -9 -10 -7 -6 10 3 11 1 21 -5 21 -10 0 -24 29 -42 90
-10 34 -10 33 -5 -13 8 -76 45 -158 84 -184 27 -19 48 -23 105 -23 69 -1 113
-16 105 -38 -7 -18 -99 -91 -193 -152 -102 -67 -147 -120 -150 -174 l-1 -31
124 -3 c83 -2 128 1 137 9 12 9 13 9 9 -3 -5 -13 8 -17 77 -22 196 -14 359
-16 448 -6 52 6 137 11 189 11 56 0 101 5 109 11 10 9 16 8 22 -1 6 -11 9 -11
13 0 5 12 7 12 15 0 9 -12 13 -12 26 -2 9 8 16 18 16 23 0 14 51 78 62 78 5 0
-4 -17 -21 -37 -35 -42 -39 -58 -14 -49 9 4 20 1 25 -6 5 -9 8 -8 8 6 0 13 5
16 17 12 10 -4 14 -4 11 0 -4 4 -3 15 2 25 7 12 6 19 -2 21 -7 3 -5 13 6 31
14 21 23 25 46 21 15 -4 30 -2 34 4 5 8 -15 9 -82 3 -7 0 -10 -5 -7 -11 4 -6
-1 -7 -11 -3 -16 6 -15 7 2 20 10 7 21 13 25 13 4 0 9 9 12 20 3 11 11 20 18
20 10 0 10 -3 1 -12 -19 -19 -14 -26 19 -24 20 1 37 10 49 26 11 15 29 25 44
25 l26 1 -29 -31 c-36 -38 -56 -75 -41 -75 6 0 8 -5 4 -11 -4 -8 -9 -8 -17 0
-8 8 -15 3 -24 -17 -7 -15 -11 -19 -8 -9 6 23 -8 22 -30 -3 -10 -11 -15 -20
-10 -20 4 0 2 -7 -5 -15 -13 -15 -5 -39 11 -30 5 4 9 15 9 26 0 10 4 19 9 19
4 0 6 -11 3 -25 -5 -28 -30 -25 221 -31 136 -3 148 -2 135 13 -11 14 -10 14
13 -1 23 -14 50 -17 170 -15 79 1 153 1 164 1 11 0 66 -3 123 -7 121 -9 130 0
51 55 -28 19 -69 51 -92 71 -23 19 -64 48 -92 63 -27 16 -63 41 -80 56 -31 28
-171 112 -215 128 -14 6 -42 23 -62 38 -21 16 -58 44 -83 63 -25 18 -45 37
-45 42 0 13 -57 11 -83 -2 -12 -7 -71 -53 -132 -103 -180 -150 -372 -265 -601
-361 -46 -19 -44 -19 -44 5 0 12 7 20 18 20 16 1 16 1 0 14 -10 7 -18 21 -18
30 0 9 -4 17 -10 17 -20 3 -25 4 -40 14 -13 8 -13 7 -1 -8 7 -9 17 -14 22 -11
5 3 9 -5 8 -18 0 -13 -3 -17 -6 -10 -7 17 -23 15 -23 -3 0 -9 -6 -12 -16 -8
-13 5 -14 0 -9 -30 4 -19 3 -37 -2 -40 -5 -3 -39 9 -75 26 -60 29 -67 36 -73
67 -3 19 -12 59 -20 89 -18 68 -8 83 47 79 22 -1 42 3 46 9 4 6 20 15 35 18
15 4 27 11 27 16 0 11 -22 8 -31 -4 -3 -4 -6 6 -6 23 0 34 8 37 31 14 14 -14
15 -12 10 14 -5 24 -2 32 15 41 18 10 21 9 23 -6 0 -10 2 -23 2 -30 2 -23 18
-28 32 -9 16 23 19 50 4 41 -13 -8 -13 1 1 28 l12 21 10 -24 10 -25 6 25 c4
16 14 25 26 25 25 0 47 14 40 25 -3 5 -1 11 5 15 6 4 10 -6 10 -24 0 -40 10
-39 33 1 13 23 21 28 26 19 6 -9 10 -6 14 10 5 18 9 20 21 10 12 -10 17 -4 31
32 9 25 29 58 43 74 29 31 70 97 79 125 2 9 13 18 24 21 10 3 19 13 19 24 0
10 10 34 22 53 28 45 28 46 28 173 0 123 7 170 22 143 6 -10 6 -22 1 -29 -5
-7 -9 -25 -8 -42 1 -16 4 -65 5 -107 2 -43 7 -73 11 -67 6 11 45 -97 40 -114
-1 -5 3 -6 8 -3 5 3 12 -6 15 -22 4 -15 9 -35 13 -46 3 -10 1 -16 -4 -13 -4 3
-9 -8 -9 -24 -1 -16 2 -29 7 -29 5 0 9 8 9 17 0 13 3 14 11 6 15 -15 -9 -42
-31 -36 -8 3 -4 -4 9 -15 23 -19 23 -20 5 -25 -10 -3 -3 -5 16 -4 20 0 41 -2
47 -6 7 -4 16 0 22 10 10 17 10 17 11 1 0 -10 4 -18 10 -18 5 0 6 7 3 17 -5
11 -3 14 6 8 10 -6 11 -3 2 11 -14 25 -89 141 -126 195 -55 82 -65 145 -49
331 l7 87 34 12 c31 10 53 34 53 59 0 6 -5 8 -12 4 -8 -5 -9 -2 -5 9 3 10 2
17 -3 17 -5 0 -12 -10 -16 -22 -7 -22 -7 -22 -15 -3 -6 16 -8 17 -8 3 -1 -27
-31 -51 -46 -38 -11 9 -18 3 -33 -27 -18 -33 -20 -35 -20 -13 0 14 -3 107 -7
207 -8 202 -3 232 47 289 27 30 58 48 44 25 -3 -5 1 -14 9 -21 12 -10 15 -9
15 7 0 10 6 28 14 39 12 16 14 57 12 200 -2 98 -7 194 -11 212 -4 19 -33 61
-66 98 -33 35 -59 73 -59 84 0 29 -55 141 -94 190 -37 47 -118 100 -154 100
-13 0 -32 5 -43 11 -13 6 -105 11 -232 13 -117 1 -221 5 -232 9 -12 4 -29 0
-41 -9z m-17 -127 l18 -21 -38 22 c-48 27 -66 28 -42 2 11 -12 13 -20 6 -20
-8 0 -9 -5 -1 -19 8 -15 7 -19 -7 -17 -16 3 -43 33 -43 49 0 5 7 6 16 3 8 -3
13 -2 9 3 -3 5 -2 16 1 24 7 20 54 5 81 -26z m-219 -29 c2 -13 -2 -14 -33 -4
-44 14 -46 27 -2 22 18 -2 33 -10 35 -18z m-38 -80 c0 -21 0 -21 -25 2 -27 26
-24 46 6 30 10 -6 19 -20 19 -32z m-75 -118 c-8 -13 -45 -13 -45 0 0 5 5 21
12 35 l12 26 13 -26 c8 -14 11 -30 8 -35z m1009 -1352 c-8 -28 -12 -33 -20
-25 -9 8 6 47 17 47 6 0 7 -10 3 -22z m-38 -86 c-20 -20 -22 -1 -3 28 10 18
12 18 15 4 2 -9 -3 -24 -12 -32z m61 -4 c-3 -8 -6 -5 -6 6 -1 11 2 17 5 13 3
-3 4 -12 1 -19z m-120 -50 c-3 -7 -5 -2 -5 12 0 14 2 19 5 13 2 -7 2 -19 0
-25z m393 -138 c0 -5 -4 -10 -10 -10 -5 0 -10 5 -10 10 0 6 5 10 10 10 6 0 10
-4 10 -10z m7 -61 c-4 -16 -3 -18 8 -9 10 8 14 5 17 -14 4 -22 3 -23 -19 -13
-22 10 -31 36 -16 50 12 12 15 7 10 -14z m-497 -16 c0 -22 -17 -50 -25 -42 -6
7 11 59 20 59 3 0 5 -8 5 -17z m-205 -233 c3 -5 1 -10 -4 -10 -6 0 -11 5 -11
10 0 6 2 10 4 10 3 0 8 -4 11 -10z m-37 -41 c-3 -8 -7 -3 -11 10 -4 17 -3 21
5 13 5 -5 8 -16 6 -23z m1032 -85 c0 -14 -3 -14 -15 -4 -8 7 -15 14 -15 16 0
2 7 4 15 4 8 0 15 -7 15 -16z m-99 -27 c-10 -9 -11 -8 -5 6 3 10 9 15 12 12 3
-3 0 -11 -7 -18z m54 13 c-3 -5 -12 -10 -18 -10 -7 0 -6 4 3 10 19 12 23 12
15 0z m-15 -40 c-12 -22 -21 -26 -17 -7 2 10 17 26 25 27 1 0 -2 -9 -8 -20z
m-15 -50 c11 -5 14 -9 7 -9 -7 -1 -11 -4 -9 -8 3 -5 -8 -8 -24 -9 -33 -1 -34
1 -16 21 14 16 15 17 42 5z m262 -35 c0 -8 -4 -15 -9 -15 -4 0 -8 7 -8 15 0 8
4 15 8 15 5 0 9 -7 9 -15z m-587 -60 c-7 -8 -16 -15 -21 -15 -5 0 -1 9 8 20 9
11 19 17 21 15 3 -3 -1 -11 -8 -20z m83 -10 c-22 -17 -30 -11 -13 10 7 8 17
12 22 9 5 -3 1 -12 -9 -19z m-73 -29 c0 -3 -4 -8 -10 -11 -5 -3 -10 -1 -10 4
0 6 5 11 10 11 6 0 10 -2 10 -4z"/>
<path d="M3380 4030 c-11 -16 -24 -19 -69 -16 -31 2 -64 -1 -74 -6 -24 -12
-99 0 -90 15 4 6 0 8 -10 4 -9 -3 -19 -2 -22 4 -4 5 -10 7 -15 4 -4 -2 -36 -7
-70 -9 -53 -4 -67 -9 -89 -33 -14 -15 -39 -38 -56 -50 -28 -20 -30 -26 -29
-79 2 -56 11 -72 49 -81 6 -1 20 -5 33 -9 12 -4 22 -2 22 4 0 5 13 15 30 20
20 7 31 20 36 39 20 84 64 109 192 108 59 -1 72 2 72 15 1 13 2 13 13 -1 7 -9
18 -14 25 -12 6 3 12 -2 12 -11 0 -10 -6 -13 -15 -10 -8 4 -15 1 -15 -4 0 -6
8 -13 18 -15 9 -3 -3 -5 -28 -6 -33 -1 -41 -4 -30 -11 23 -15 -5 -30 -57 -30
-66 0 -75 -6 -58 -40 13 -26 17 -27 57 -19 57 11 88 11 88 0 0 -5 -12 -22 -27
-38 -23 -24 -38 -30 -78 -32 -65 -3 -72 -11 -9 -10 63 1 116 20 130 47 21 43
46 61 86 64 35 3 43 8 62 43 11 22 27 44 34 48 11 7 9 13 -7 28 -12 11 -21 24
-21 30 0 14 -26 39 -39 39 -6 0 -11 4 -11 9 0 18 -27 19 -40 1z m-46 -60 c-6
-6 -10 -2 -11 12 -2 16 1 18 10 9 7 -7 8 -14 1 -21z"/>
<path d="M4010 3971 c-7 -13 -7 -28 -2 -38 15 -29 23 -85 12 -78 -6 3 -10 -1
-10 -10 0 -10 -5 -13 -12 -9 -7 4 -23 9 -35 10 -33 4 -64 -61 -53 -111 4 -19
4 -51 0 -71 -15 -67 9 -84 39 -28 10 18 24 30 33 28 11 -1 23 14 37 46 12 27
21 53 21 59 0 6 5 11 10 11 14 0 12 75 -5 143 -16 70 -20 75 -35 48z m27 -153
c-3 -8 -6 -5 -6 6 -1 11 2 17 5 13 3 -3 4 -12 1 -19z m-90 -90 c-3 -8 -6 -5
-6 6 -1 11 2 17 5 13 3 -3 4 -12 1 -19z"/>
<path d="M3523 3969 c-12 -12 -6 -49 8 -49 5 0 9 14 9 30 0 33 -1 35 -17 19z"/>
<path d="M2500 3933 c-11 -13 -27 -23 -35 -23 -18 0 -19 -20 -2 -43 10 -15 16
-16 44 -5 27 10 41 10 75 -2 50 -18 59 -37 21 -45 -54 -12 -80 -27 -93 -51
-21 -39 -3 -40 32 0 38 44 48 45 48 7 0 -32 15 -42 45 -30 11 4 33 8 48 8 25
1 27 -1 17 -21 l-11 -23 19 22 c31 36 36 86 13 132 -18 35 -81 94 -81 75 0 -3
-6 -1 -14 5 -8 7 -35 13 -61 14 -36 2 -50 -3 -65 -20z"/>
<path d="M3974 3927 c3 -10 6 -28 7 -40 0 -21 1 -21 10 2 7 19 6 28 -7 40 -15
15 -16 14 -10 -2z"/>
<path d="M3060 3817 c-39 -19 -42 -22 -22 -25 28 -4 58 6 48 15 -3 4 6 12 21
19 16 7 21 13 13 13 -8 1 -35 -9 -60 -22z"/>
<path d="M4051 3722 c-1 -8 -10 -25 -21 -39 -15 -19 -20 -40 -20 -82 1 -53 2
-55 14 -31 18 33 40 134 33 151 -4 11 -6 11 -6 1z"/>
<path d="M3020 3440 c0 -16 -38 -49 -70 -62 -14 -6 -60 -12 -103 -13 -53 -2
-83 -7 -95 -18 -9 -9 -39 -17 -66 -19 -38 -2 -50 -7 -52 -21 -2 -14 1 -16 11
-7 8 7 21 7 37 1 19 -7 27 -19 31 -48 3 -21 9 -53 13 -72 9 -44 -9 -35 -34 17
-23 49 -47 56 -37 11 7 -32 10 -47 15 -94 1 -11 4 -15 7 -7 7 17 44 15 70 -3
12 -8 43 -18 70 -21 26 -3 50 -7 54 -10 4 -2 40 3 80 11 40 9 100 16 132 16
33 1 75 7 93 15 18 8 40 11 49 8 27 -11 58 26 51 60 -8 39 -24 56 -53 56 -13
0 -21 4 -18 10 3 6 -1 7 -9 4 -9 -3 -13 -10 -10 -15 3 -5 -6 -9 -19 -9 -14 0
-31 -9 -40 -22 -13 -21 -17 -22 -37 -10 -21 13 -22 12 -18 -15 2 -17 -1 -30
-6 -31 -6 0 -32 -4 -58 -7 -40 -6 -48 -4 -48 9 0 9 7 16 15 16 9 0 18 7 21 15
4 8 17 15 29 15 24 0 24 0 22 122 -1 87 -6 123 -14 125 -7 3 -13 -1 -13 -7z
m-110 -100 c0 -5 -5 -10 -11 -10 -5 0 -7 5 -4 10 3 6 8 10 11 10 2 0 4 -4 4
-10z m23 -27 c9 -14 -18 -28 -56 -29 -38 -1 -48 17 -13 22 10 1 20 5 24 8 8 9
40 7 45 -1z m55 -108 c-3 -3 -9 2 -12 12 -6 14 -5 15 5 6 7 -7 10 -15 7 -18z
m-145 -70 c15 -3 27 -9 27 -14 0 -11 -61 -3 -77 11 -7 5 -17 7 -22 4 -5 -4
-12 -2 -15 3 -8 12 25 19 44 10 8 -4 27 -10 43 -14z m100 5 c-13 -12 -63 -21
-63 -11 0 11 51 30 63 24 5 -3 5 -9 0 -13z"/>
<path d="M3670 3295 c0 -14 4 -25 8 -25 4 0 9 11 10 25 1 14 -3 25 -8 25 -6 0
-10 -11 -10 -25z"/>
<path d="M2605 3290 c3 -5 8 -10 11 -10 2 0 4 5 4 10 0 6 -5 10 -11 10 -5 0
-7 -4 -4 -10z"/>
<path d="M3651 3204 c0 -11 3 -14 6 -6 3 7 2 16 -1 19 -3 4 -6 -2 -5 -13z"/>
<path d="M3630 3160 c0 -11 2 -20 4 -20 2 0 6 9 9 20 3 11 1 20 -4 20 -5 0 -9
-9 -9 -20z"/>
<path d="M2680 3084 c0 -13 34 -64 70 -104 l32 -35 -28 52 c-25 50 -74 107
-74 87z"/>
<path d="M3101 3038 c-37 -21 -69 -25 -224 -29 -53 -2 -97 -5 -97 -7 0 -10 35
-62 41 -62 4 0 20 -10 36 -23 15 -13 37 -22 48 -21 60 7 142 28 156 40 8 8 20
14 26 14 22 0 54 48 51 77 l-3 30 -34 -19z"/>
<path d="M3903 2779 c-9 -22 -8 -26 3 -22 8 3 14 0 14 -6 0 -6 -6 -11 -13 -11
-21 0 -47 -34 -47 -60 0 -23 0 -23 19 -4 10 10 17 21 15 23 -6 6 38 51 49 51
5 0 7 -7 3 -15 -6 -18 4 -19 37 -4 39 18 29 78 -12 79 -11 0 -10 -5 4 -20 10
-11 14 -20 9 -20 -5 0 -4 -4 3 -8 9 -5 6 -12 -10 -21 -20 -13 -21 -13 -8 2 12
15 11 17 -9 17 -20 0 -21 2 -9 17 10 11 10 14 2 9 -8 -4 -13 -2 -13 7 0 24
-27 15 -37 -14z"/>
<path d="M3455 2620 c-3 -5 -1 -10 4 -10 6 0 11 5 11 10 0 6 -2 10 -4 10 -3 0
-8 -4 -11 -10z"/>
<path d="M3430 2590 c0 -5 4 -10 9 -10 6 0 13 5 16 10 3 6 -1 10 -9 10 -9 0
-16 -4 -16 -10z"/>
<path d="M3475 2570 c3 -5 8 -10 11 -10 2 0 4 5 4 10 0 6 -5 10 -11 10 -5 0
-7 -4 -4 -10z"/>
<path d="M3450 2496 c0 -2 9 -6 20 -9 11 -3 18 -1 14 4 -5 9 -34 13 -34 5z"/>
<path d="M4132 2410 c-19 -30 -14 -36 8 -10 22 25 24 30 12 30 -4 0 -13 -9
-20 -20z"/>
<path d="M3319 2383 c-13 -16 -12 -17 4 -4 16 13 21 21 13 21 -2 0 -10 -8 -17
-17z"/>
<path d="M4046 2353 c-3 -4 -6 -13 -6 -21 0 -11 3 -12 13 -3 8 6 17 8 20 4 4
-3 7 -2 7 4 0 13 -25 24 -34 16z"/>
<path d="M3324 2335 c10 -8 23 -12 28 -9 14 9 -2 24 -25 24 -21 -1 -21 -1 -3
-15z"/>
</g>
</svg>
